# xmcd
#
# Track frame offsets: 
#        150
#        16857
#        32986
#        49188
#        68553
#        85950
#        99492
#        118375
#        139728
#        162745
#        181725
#
# Disc length: 2641 seconds
#
# Revision: 2
# Processed by: cddbd v1.5.2PL0 Copyright (c) Steve Scherf et al.
# Submitted via: ExactAudioCopy v0.99pb4
#
DISCID=940a4f0b
DTITLE=Натали - Ветер с моря
DYEAR=1998
DGENRE=Pop
TTITLE0=Ветер с моря дул... 
TTITLE1=Посвящение друзьям 
TTITLE2=Как жаль 
TTITLE3=Совсем забыть 
TTITLE4=Судьба такая 
TTITLE5=Четыре стены 
TTITLE6=Звезда по имени Солнце 
TTITLE7=Птицы белые мои 
TTITLE8=Сон 
TTITLE9=Солнце мое 
TTITLE10=Ветер с моря дул... (no voice) 
EXTD=
EXTT0=
EXTT1=
EXTT2=
EXTT3=
EXTT4=
EXTT5=
EXTT6=
EXTT7=
EXTT8=
EXTT9=
EXTT10=
PLAYORDER=
